<svg width="61" height="60" viewBox="0 0 61 60" fill="none" xmlns="http://www.w3.org/2000/svg">
    <g clip-path="url(#clip0_1021_11630)">
        <g filter="url(#filter0_d_1021_11630)">
            <path d="M57.4243 30.6583C57.7539 30.2813 57.7539 29.7187 57.4243 29.3417L52.1824 23.3479C52.0021 23.1417 51.9142 22.8706 51.9394 22.5978L52.6696 14.6728C52.7156 14.1733 52.3844 13.717 51.8953 13.6059L44.1453 11.8455C43.877 11.7845 43.6457 11.6158 43.5058 11.3789L39.4473 4.5074C39.1915 4.07432 38.6539 3.89862 38.1917 4.09708L30.8946 7.23057C30.6426 7.33875 30.3574 7.33875 30.1054 7.23057L22.8071 4.0966C22.3455 3.89835 21.8084 4.07346 21.5522 4.50574L17.4951 11.3535C17.3546 11.5906 17.1226 11.7592 16.8537 11.8195L9.10727 13.5576C8.61694 13.6677 8.28441 14.1245 8.3304 14.6249L9.06086 22.574C9.08586 22.8461 8.99845 23.1165 8.81896 23.3225L3.57353 29.3418C3.24497 29.7189 3.24547 30.2807 3.5747 30.6571L8.8177 36.6522C8.99796 36.8583 9.08582 37.1293 9.06076 37.402L8.33018 45.3524C8.28429 45.8518 8.61542 46.308 9.10448 46.4191L16.8555 48.1797C17.1233 48.2405 17.3543 48.4088 17.4943 48.6451L21.5511 55.4924C21.8077 55.9255 22.3462 56.1003 22.8083 55.9005L30.1045 52.746C30.3569 52.6369 30.6432 52.6365 30.8959 52.745L38.1928 55.8784C38.6545 56.0767 39.1916 55.9015 39.4478 55.4693L43.5057 48.6201C43.6457 48.3838 43.8767 48.2155 44.1445 48.1547L51.8953 46.3941C52.3844 46.283 52.7156 45.8267 52.6696 45.3272L51.9394 37.4022C51.9142 37.1294 52.0021 36.8583 52.1824 36.6521L57.4243 30.6583ZM26.433 41.09C26.0423 41.4818 25.4077 41.4818 25.0169 41.0901L16.9302 32.9821C16.5406 32.5914 16.541 31.959 16.9312 31.5688L19.2164 29.2836C19.6075 28.8925 20.2418 28.8932 20.6321 29.2852L25.0167 33.6886C25.4074 34.0811 26.0427 34.0812 26.4336 33.689L39.6429 20.4345C40.0332 20.0429 40.6673 20.0423 41.0583 20.4333L43.3439 22.7189C43.734 23.109 43.7344 23.7414 43.3448 24.1321L26.433 41.09Z"
                  fill="#31D7A9"/>
        </g>
    </g>
    <defs>
        <filter id="filter0_d_1021_11630" x="2.82715" y="3.51562" width="56.3447" height="53.9668"
                filterUnits="userSpaceOnUse" color-interpolation-filters="sRGB">
            <feFlood flood-opacity="0" result="BackgroundImageFix"/>
            <feColorMatrix in="SourceAlpha" type="matrix" values="0 0 0 0 0 0 0 0 0 0 0 0 0 0 0 0 0 0 127 0"
                           result="hardAlpha"/>
            <feOffset dx="0.5" dy="0.5"/>
            <feGaussianBlur stdDeviation="0.5"/>
            <feComposite in2="hardAlpha" operator="out"/>
            <feColorMatrix type="matrix" values="0 0 0 0 0 0 0 0 0 0 0 0 0 0 0 0 0 0 0.5 0"/>
            <feBlend mode="normal" in2="BackgroundImageFix" result="effect1_dropShadow_1021_11630"/>
            <feBlend mode="normal" in="SourceGraphic" in2="effect1_dropShadow_1021_11630" result="shape"/>
        </filter>
        <clipPath id="clip0_1021_11630">
            <rect width="60" height="60" fill="white" transform="translate(0.5)"/>
        </clipPath>
    </defs>
</svg>
